Coordinates
version=1
nRows=17
nColumns=24
inDegrees=yes

Units are S.I. units (second, meters, Newtons, ...)
Angles are in degrees.

endheader
time	pelvis_tilt	pelvis_list	pelvis_rotation	pelvis_tx	pelvis_ty	pelvis_tz	hip_flexion_r	hip_adduction_r	hip_rotation_r	knee_angle_r	ankle_angle_r	subtalar_angle_r	mtp_angle_r	hip_flexion_l	hip_adduction_l	hip_rotation_l	knee_angle_l	ankle_angle_l	subtalar_angle_l	mtp_angle_l	lumbar_extension	lumbar_bending	lumbar_rotation
      1.11683333	     -0.14022531	      4.73458559	     -0.73993365	      0.48729552	      1.02232617	      0.30463346	      8.41375311	      0.19898515	      2.48458127	    -14.28843577	      7.20567189	    -10.06615308	     -0.99863542	     14.96454342	      3.61231839	     -5.27847036	    -63.80744598	      2.76299579	     -9.81521336	      2.62207631	      0.03201164	     -4.13404552	      6.52252956
      1.12100000	     -0.09856695	      4.78745573	     -1.09440891	      0.49186262	      1.02266730	      0.30529779	      8.02912938	      0.17606786	      2.67868497	    -14.09464094	      7.29672853	     -9.91084264	     -0.92920489	     15.40914701	      3.58791742	     -5.59950692	    -63.43864713	      2.93987863	     -9.78887084	      2.62382963	      0.00742028	     -4.18269174	      6.72916730
      1.12516667	     -0.05509838	      4.83323573	     -1.42932192	      0.49640741	      1.02298504	      0.30591708	      7.63724982	      0.15443886	      2.87534241	    -13.89194829	      7.40511067	     -9.75910721	     -0.82919113	     15.84584601	      3.56455809	     -5.88490298	    -63.04340695	      3.10770589	     -9.76959370	      2.62253922	     -0.02852592	     -4.20979492	      7.03728887
      1.12933333	     -0.01449449	      4.86984869	     -1.76552600	      0.50092652	      1.02326244	      0.30653818	      7.26030691	      0.13965274	      3.06922840	    -13.71166537	      7.49101257	     -9.61570802	     -0.78174778	     16.28100161	      3.51799012	     -6.18931611	    -62.62778736	      3.24792842	     -9.81133408	      2.62004267	     -0.06182295	     -4.23875896	      7.14656319
      1.13350000	      0.04761607	      4.91503184	     -2.09127500	      0.50545089	      1.02356782	      0.30714035	      6.85036631	      0.11006919	      3.26535092	    -13.51390863	      7.61691496	     -9.49132561	     -0.68443988	     16.67791741	      3.48748831	     -6.47127538	    -62.16851159	      3.36685208	     -9.85886792	      2.61050031	     -0.11609925	     -4.27974317	      7.47807875
      1.13766667	      0.06590049	      4.93903541	     -2.40718561	      0.50993204	      1.02374580	      0.30772511	      6.50052613	      0.10189679	      3.46143793	    -13.33966492	      7.70701057	     -9.34933024	     -0.64692196	     17.12624322	      3.42548422	     -6.75012621	    -61.71101827	      3.48444032	     -9.93901425	      2.60535099	     -0.13302932	     -4.29208352	      7.55034269
      1.14183333	      0.11688125	      4.98079179	     -2.72443112	      0.51442400	      1.02396562	      0.30830654	      6.11805658	      0.06929898	      3.65742506	    -13.17517904	      7.84787147	     -9.23948789	     -0.54849463	     17.51946659	      3.38145842	     -7.03621400	    -61.19988680	      3.55937186	    -10.05552239	      2.58697289	     -0.17338853	     -4.33393147	      7.88420711
      1.14600000	      0.15462072	      5.00364079	     -3.03655319	      0.51888729	      1.02413037	      0.30887354	      5.75717507	      0.05406219	      3.84905489	    -13.02385091	      7.95868241	     -9.11555102	     -0.49770495	     17.92422350	      3.30922617	     -7.32147600	    -60.67894741	      3.64161056	    -10.16620522	      2.57487160	     -0.20414147	     -4.35045168	      7.98210774
      1.15016667	      0.22241443	      5.03668504	     -3.33089143	      0.52334263	      1.02433111	      0.30940337	      5.35164882	      0.01996635	      4.04240697	    -12.85060427	      8.09838626	     -8.99570731	     -0.41300656	     18.28291143	      3.26540180	     -7.56852274	    -60.11489636	      3.69008018	    -10.32061004	      2.55086547	     -0.28316174	     -4.38475432	      8.22863210
      1.15433333	      0.25406792	      5.05489742	     -3.62437480	      0.52779342	      1.02445013	      0.30992958	      4.99395671	      0.00193726	      4.23826419	    -12.69657345	      8.22696320	     -8.88429370	     -0.33382964	     18.67427282	      3.19412070	     -7.82353250	    -59.53756986	      3.74033306	    -10.46387322	      2.52414704	     -0.31364442	     -4.39812208	      8.39653124
      1.15850000	      0.25622282	      5.05397587	     -3.89815051	      0.53222186	      1.02447459	      0.31042591	      4.66628653	      0.00295854	      4.43215719	    -12.54262470	      8.34217747	     -8.76075884	     -0.30471522	     19.09733638	      3.09837501	     -8.06091418	    -58.95937173	      3.81234703	    -10.58002652	      2.51268276	     -0.32366406	     -4.39317651	      8.44378232
      1.16266667	      0.31120513	      5.08686434	     -4.18309877	      0.53666323	      1.02458882	      0.31091661	      4.29254282	     -0.04135570	      4.61731733	    -12.41104037	      8.50099782	     -8.66058604	     -0.23097589	     19.43630857	      3.04930769	     -8.30275997	    -58.30731891	      3.81064570	    -10.77839531	      2.47712075	     -0.37610577	     -4.42312386	      8.70082131
      1.16683333	      0.32033555	      5.08547770	     -4.45475562	      0.54107796	      1.02458702	      0.31139312	      3.96358129	     -0.04713021	      4.81468569	    -12.27063073	      8.62711060	     -8.53900009	     -0.20071781	     19.82753973	      2.95133628	     -8.53541670	    -57.67028610	      3.86224944	    -10.89378100	      2.46097323	     -0.39581551	     -4.41677903	      8.75504184
      1.17100000	      0.36577572	      5.10377400	     -4.72256986	      0.54550618	      1.02464614	      0.31183187	      3.60077748	     -0.08406539	      4.98930228	    -12.14398179	      8.78933078	     -8.43150849	     -0.13495939	     20.15700812	      2.89216903	     -8.74736684	    -56.97093056	      3.85411355	    -11.07916011	      2.41946246	     -0.43998287	     -4.43079773	      8.98307819
      1.17516667	      0.38862902	      5.10747586	     -4.99687419	      0.54991350	      1.02464294	      0.31228023	      3.26976677	     -0.10472772	      5.18168678	    -12.02961001	      8.92771936	     -8.32139296	     -0.09818361	     20.50294592	      2.80367442	     -8.97281898	    -56.26067079	      3.87386785	    -11.19927863	      2.39352966	     -0.46851183	     -4.42440838	      9.06208149
      1.17933333	      0.40623015	      5.10263986	     -5.23943162	      0.55432229	      1.02461338	      0.31269815	      2.92208098	     -0.11885839	      5.36441604	    -11.87466464	      9.07230269	     -8.20212153	     -0.07377838	     20.85014070	      2.71388295	     -9.16093278	    -55.53779390	      3.89521639	    -11.30856506	      2.37430481	     -0.50439459	     -4.42768957	      9.13278156
      1.18350000	      0.44174178	      5.11381771	     -5.50594040	      0.55872086	      1.02458916	      0.31310301	      2.58989628	     -0.15766263	      5.53508420	    -11.78829488	      9.23323289	     -8.09801241	     -0.04011608	     21.15517441	      2.64516146	     -9.36023289	    -54.75942028	      3.87456152	    -11.44680145	      2.34327327	     -0.54093731	     -4.42567055	      9.28239920
